<svg width="125" height="126" viewBox="0 0 125 126" fill="none" xmlns="http://www.w3.org/2000/svg">
<g id="Social, Media/android-square">
<g id="Group">
<path id="Vector" d="M50.2668 91.5235V103.748M74.7161 91.5235V103.748M46.199 22.2537L52.3113 28.3659M78.7917 22.2537L72.6795 28.3659M38.0547 50.7754V86.9939C38.0547 89.4957 40.0828 91.5238 42.5846 91.5238H82.4229C84.9247 91.5238 86.9528 89.4957 86.9528 86.9939V50.7754M38.0547 50.7754H86.9528M38.0547 50.7754C38.0547 37.2726 49.0009 26.3257 62.5038 26.3257C76.0066 26.3257 86.9528 37.2726 86.9528 50.7754M23.4426 50.5533V75.4505M101.552 75.4505V50.5532" stroke="url(#paint0_linear_406_2995)" stroke-width="5" stroke-linecap="round" stroke-linejoin="round"/>
</g>
</g>
<defs>
<linearGradient id="paint0_linear_406_2995" x1="81.3952" y1="85.8656" x2="62.9022" y2="16.7859" gradientUnits="userSpaceOnUse">
<stop stop-color="#7330A7"/>
<stop offset="1" stop-color="#E5725D"/>
</linearGradient>
</defs>
</svg>
