<svg width="125" height="126" viewBox="0 0 125 126" fill="none" xmlns="http://www.w3.org/2000/svg">
<g id="Servers, Databases/Computer, Database, Synchronize, Sync">
<g id="Group">
<g id="Group_2">
<path id="Vector" d="M15.6329 83.8337C15.6329 89.5889 23.7943 94.2503 33.862 94.2503C43.9297 94.2503 52.086 89.5837 52.086 83.8337M52.086 68.2087C52.086 73.9639 43.9245 78.6253 33.8568 78.6253C23.7891 78.6253 15.6276 73.9639 15.6276 68.2087M52.086 68.2087C52.0808 62.4587 43.9193 57.7917 33.8568 57.7917C23.7943 57.7917 15.6276 62.4531 15.6329 68.2084V99.4584C15.6329 105.214 23.7943 109.875 33.862 109.875C43.9297 109.875 52.086 105.208 52.086 99.4584V68.2087ZM72.9167 104.667H100.448C105.375 104.667 109.375 100.667 109.375 95.7398V73.4169M41.6641 16.1252H24.5495C19.6224 16.1252 15.6224 20.1252 15.6224 25.0523V42.1669M85.6224 43.1559V57.7914M96.0391 57.7919H75.2058M109.375 37.2813V16.7761C109.375 13.5417 106.75 10.9167 103.516 10.9167H67.7084C64.474 10.9167 61.849 13.5417 61.849 16.7761V37.2865C61.849 40.5209 64.474 43.1459 67.7084 43.1459H103.516C106.75 43.1459 109.375 40.5209 109.375 37.2813Z" stroke="url(#paint0_linear_406_3022)" stroke-width="5" stroke-linecap="round" stroke-linejoin="round"/>
</g>
</g>
</g>
<defs>
<linearGradient id="paint0_linear_406_3022" x1="85.1814" y1="88.1605" x2="62.4987" y2="4.4088" gradientUnits="userSpaceOnUse">
<stop stop-color="#7330A7"/>
<stop offset="1" stop-color="#E5725D"/>
</linearGradient>
</defs>
</svg>
