<svg width="125" height="126" viewBox="0 0 125 126" fill="none" xmlns="http://www.w3.org/2000/svg">
<g id="Business, Products/Imac, Dollar, Money">
<g id="Group">
<g id="Group_2">
<path id="Vector" d="M72.918 89.0415L75.5221 109.875M52.0859 89.0415L49.4818 109.875M42.3984 109.875H82.6068M62.5026 36.9583V31.75M62.5026 36.9583L59.3984 36.9585C55.362 36.9585 52.0859 40.2345 52.0859 44.271C52.0859 47.6252 54.3672 50.5522 57.6172 51.3752L67.3828 53.8231C70.638 54.6408 72.9193 57.5627 72.9193 60.9168C72.9193 64.9533 69.6484 68.2293 65.6068 68.2293H59.8984C57.112 68.2293 54.8099 66.6981 53.4609 64.4897M62.5026 36.9583L65.1068 36.9585C67.8828 36.9585 70.1797 38.4793 71.5339 40.6772M62.5026 68.2085V73.4168M95.9844 89.0417H29.0156C21.6198 89.0417 15.625 83.0469 15.625 75.651V29.5156C15.625 22.1198 21.6198 16.125 29.0156 16.125H95.9792C103.38 16.125 109.375 22.1198 109.375 29.5156V75.6458C109.375 83.0469 103.38 89.0417 95.9844 89.0417Z" stroke="url(#paint0_linear_406_2987)" stroke-width="5" stroke-linecap="round" stroke-linejoin="round"/>
</g>
</g>
</g>
<defs>
<linearGradient id="paint0_linear_406_2987" x1="85.1821" y1="89.3035" x2="64.68" y2="9.40026" gradientUnits="userSpaceOnUse">
<stop stop-color="#7330A7"/>
<stop offset="1" stop-color="#E5725D"/>
</linearGradient>
</defs>
</svg>
