<svg width="125" height="126" viewBox="0 0 125 126" fill="none" xmlns="http://www.w3.org/2000/svg">
<g id="Mobile, Devices/Mobile, Devices, Swipe right">
<g id="Group">
<g id="Group_2">
<path id="Vector" d="M62.9557 53.0278L72.9245 62.9966L62.3672 73.5539M72.9219 62.9972H41.6719M72.9271 42.1639V31.7472C72.9271 25.992 68.2656 21.3306 62.5104 21.3306H31.2604C25.5052 21.3306 20.8438 25.992 20.8438 31.7472V94.2472C20.8438 100.002 25.5052 104.664 31.2604 104.664H62.5104C68.2656 104.664 72.9271 100.002 72.9271 94.2472V83.8306M41.0547 91.6427H52.7214M106.329 55.6315C110.397 59.6995 110.397 66.295 106.329 70.3629C102.261 74.4309 95.6658 74.4309 91.5978 70.3629C87.5299 66.295 87.5299 59.6995 91.5978 55.6315C95.6658 51.5636 102.261 51.5636 106.329 55.6315Z" stroke="url(#paint0_linear_406_3009)" stroke-width="5" stroke-linecap="round" stroke-linejoin="round"/>
</g>
</g>
</g>
<defs>
<linearGradient id="paint0_linear_406_3009" x1="86.5327" y1="86.378" x2="69.2579" y2="14.849" gradientUnits="userSpaceOnUse">
<stop stop-color="#7330A7"/>
<stop offset="1" stop-color="#E5725D"/>
</linearGradient>
</defs>
</svg>
