<svg width="1779" height="1096" viewBox="0 0 1779 1096" fill="none" xmlns="http://www.w3.org/2000/svg">
<path opacity="0.2" d="M1778.82 742.802H1779V497.674V252.546V0H1760.01C1627.7 0 1520.45 104.771 1520.45 234.01V252.546V316.414C1445.75 274.347 1362.22 253.176 1269.7 253.176C1161.44 253.176 1065.23 282.686 981.006 341.431C1042.02 407.577 1085.43 480.818 1111.36 561.138C1157.15 524.194 1210.09 505.706 1270.17 505.706C1339.45 505.706 1398.91 529.317 1448.56 576.556C1492.6 620.707 1516.51 672.826 1520.45 732.88V742.802H1520.93C1520.99 745.469 1521.09 748.136 1521.09 750.834C1521.09 817.207 1496.94 874.643 1448.56 923.19C1398.91 971.689 1339.45 995.963 1270.17 995.963C1202.22 995.963 1143.4 971.689 1093.72 923.19C1044.07 874.643 1019.22 817.207 1019.22 750.834C1019.22 750.624 1019.22 750.43 1019.24 750.22H1018.56C1018.46 613.079 968.73 495.994 869.366 398.931C769.902 301.756 649.873 253.176 509.281 253.176C370.028 253.176 250.662 301.756 151.181 398.931C50.4103 496.091 0 613.338 0 750.673C0 886.699 50.4103 1003.3 151.181 1100.48C250.662 1198.91 370.028 1248.15 509.281 1248.15C621.368 1248.15 720.335 1216.75 806.283 1154.18C744.374 1088.27 700.433 1015.44 674.359 935.715C627.588 975.81 572.744 995.963 509.744 995.963C441.797 995.963 382.982 971.689 333.283 923.19C283.634 874.643 258.801 817.207 258.801 750.834C258.801 683.153 283.634 625.07 333.283 576.556C382.982 529.317 441.797 505.706 509.744 505.706C579.015 505.706 638.491 529.317 688.14 576.556C735.043 623.6 759.115 679.678 760.521 744.758C760.505 746.73 760.422 748.685 760.422 750.673C760.422 886.699 810.849 1003.3 911.62 1100.48C1011.08 1198.91 1130.45 1248.15 1269.7 1248.15C1410.31 1248.15 1530.32 1198.91 1629.8 1100.48C1729.27 1003.3 1779 886.699 1779 750.673C1779 748.022 1778.85 745.437 1778.82 742.802Z" fill="url(#paint0_linear_406_2983)"/>
<defs>
<linearGradient id="paint0_linear_406_2983" x1="889.5" y1="1248.15" x2="928.203" y2="-41.041" gradientUnits="userSpaceOnUse">
<stop stop-color="white"/>
<stop offset="1" stop-color="white" stop-opacity="0"/>
</linearGradient>
</defs>
</svg>
