<svg width="125" height="126" viewBox="0 0 125 126" fill="none" xmlns="http://www.w3.org/2000/svg">
<g id="Interface, Essential/Users, Circle">
<g id="Group">
<g id="Group_2">
<path id="Vector" d="M15.625 94.2498C15.625 82.7446 24.9531 73.4165 36.4583 73.4165H57.2917C68.7969 73.4165 78.125 82.7446 78.125 94.2498M83.3359 24.723C90.5286 24.723 96.3568 30.5511 96.3568 37.7438C96.3568 44.9365 90.5286 50.7646 83.3359 50.7646M88.5391 68.2083C100.044 68.2083 109.372 77.5364 109.372 89.0416M59.403 26.5215C66.3205 33.439 66.3205 44.6547 59.403 51.5722C52.4854 58.4898 41.2698 58.4898 34.3522 51.5722C27.4347 44.6547 27.4347 33.439 34.3522 26.5215C41.2698 19.6039 52.4854 19.6039 59.403 26.5215Z" stroke="url(#paint0_linear_406_3015)" stroke-width="5" stroke-linecap="round" stroke-linejoin="round"/>
</g>
</g>
</g>
<defs>
<linearGradient id="paint0_linear_406_3015" x1="85.1801" y1="78.2497" x2="72.4672" y2="14.5486" gradientUnits="userSpaceOnUse">
<stop stop-color="#7330A7"/>
<stop offset="1" stop-color="#E5725D"/>
</linearGradient>
</defs>
</svg>
