<svg width="231" height="262" viewBox="0 0 231 262" fill="none" xmlns="http://www.w3.org/2000/svg">
<g clip-path="url(#clip0_488_300)">
<circle cx="180" cy="180" r="179.5" transform="matrix(1 0 0 -1 0 404)" stroke="white" stroke-opacity="0.33" stroke-dasharray="5.26 5.26"/>
<path fill-rule="evenodd" clip-rule="evenodd" d="M390.012 354.374C371.305 361.248 351.091 365 330 365C233.902 365 156 287.097 156 191C156 124.242 193.595 66.2647 248.769 37.0855L249.584 38.9173C195.109 67.7813 158 125.057 158 191C158 285.993 235.007 363 330 363C350.801 363 370.74 359.307 389.196 352.542L390.012 354.374Z" fill="white" fill-opacity="0.33"/>
<circle cx="70" cy="70" r="70" transform="matrix(1 0 0 -1 112 295)" fill="url(#paint0_linear_488_300)"/>
<g filter="url(#filter0_d_488_300)">
<circle cx="12" cy="12" r="12" transform="matrix(1 0 0 -1 148 286)" fill="url(#paint1_linear_488_300)" shape-rendering="crispEdges"/>
</g>
</g>
<defs>
<filter id="filter0_d_488_300" x="145" y="259" width="30" height="30" filterUnits="userSpaceOnUse" color-interpolation-filters="sRGB">
<feFlood flood-opacity="0" result="BackgroundImageFix"/>
<feColorMatrix in="SourceAlpha" type="matrix" values="0 0 0 0 0 0 0 0 0 0 0 0 0 0 0 0 0 0 127 0" result="hardAlpha"/>
<feOffset/>
<feGaussianBlur stdDeviation="1.5"/>
<feComposite in2="hardAlpha" operator="out"/>
<feColorMatrix type="matrix" values="0 0 0 0 0 0 0 0 0 0 0 0 0 0 0 0 0 0 0.25 0"/>
<feBlend mode="normal" in2="BackgroundImageFix" result="effect1_dropShadow_488_300"/>
<feBlend mode="normal" in="SourceGraphic" in2="effect1_dropShadow_488_300" result="shape"/>
</filter>
<linearGradient id="paint0_linear_488_300" x1="-76.096" y1="-173.087" x2="113.794" y2="185.357" gradientUnits="userSpaceOnUse">
<stop stop-color="white"/>
<stop offset="1" stop-color="white" stop-opacity="0"/>
</linearGradient>
<linearGradient id="paint1_linear_488_300" x1="-50.7219" y1="-286.869" x2="24.088" y2="173.402" gradientUnits="userSpaceOnUse">
<stop stop-color="white"/>
<stop offset="1" stop-color="white" stop-opacity="0"/>
</linearGradient>
<clipPath id="clip0_488_300">
<path d="M0 200C0 236.451 29.5492 266 66 266H166C202.451 266 232 236.451 232 200V66C232 29.5492 202.451 0 166 0H66C29.5492 0 0 29.5492 0 66V200Z" fill="white"/>
</clipPath>
</defs>
</svg>
