<svg width="383" height="451" viewBox="0 0 383 451" fill="none" xmlns="http://www.w3.org/2000/svg">
<circle cx="298.552" cy="298.552" r="297.308" transform="matrix(1 8.74228e-08 8.74228e-08 -1 0 667.177)" stroke="white" stroke-opacity="0.33" stroke-width="2.48778" stroke-dasharray="8.71 8.71"/>
<path fill-rule="evenodd" clip-rule="evenodd" d="M650.765 583.059C618.301 595.705 582.984 602.644 546.046 602.644C386.643 602.644 257.422 473.422 257.422 314.019C257.422 202.276 320.923 105.365 413.808 57.4033L415.344 60.8109C323.755 108.184 261.154 203.791 261.154 314.019C261.154 471.361 388.704 598.912 546.046 598.912C582.437 598.912 617.235 592.089 649.229 579.652L650.765 583.059Z" fill="white" fill-opacity="0.33"/>
<circle cx="116.301" cy="116.301" r="116.301" transform="matrix(1 8.74228e-08 8.74228e-08 -1 185.797 485.634)" fill="url(#paint0_linear_406_3036)"/>
<defs>
<linearGradient id="paint0_linear_406_3036" x1="-126.429" y1="-287.573" x2="189.062" y2="307.959" gradientUnits="userSpaceOnUse">
<stop stop-color="white"/>
<stop offset="1" stop-color="white" stop-opacity="0"/>
</linearGradient>
</defs>
</svg>
