<svg width="58" height="58" viewBox="0 0 58 58" fill="none" xmlns="http://www.w3.org/2000/svg">
<g id="Shopping, Ecommerce/basket-checkmark-button">
<g id="Group">
<path id="Path" d="M48.5699 24.2035V6.78642C48.5699 3.63697 46.0655 1.08606 42.9734 1.08606H6.59646C3.50441 1.08606 1 3.63697 1 6.78642V38.1384C1 41.2878 3.50441 43.8387 6.59646 43.8387H28.4221" stroke="#323232" stroke-width="2" stroke-linecap="round" stroke-linejoin="round"/>
<path id="Path_2" d="M52.8553 27.5984C58.3815 33.2421 58.3815 42.3923 52.8553 48.0361C47.3292 53.6798 38.3696 53.6798 32.8434 48.0361C27.3173 42.3923 27.3173 33.2421 32.8434 27.5984C38.3696 21.9547 47.3292 21.9547 52.8553 27.5984" stroke="url(#paint0_linear_488_436)" stroke-width="2" stroke-linecap="round" stroke-linejoin="round"/>
<path id="Path_3" d="M23.2796 8.29376C23.2688 8.29376 23.2615 8.30098 23.2615 8.31182C23.2615 8.32266 23.2688 8.32989 23.2796 8.32989C23.2904 8.32989 23.2977 8.32266 23.2977 8.31182C23.2977 8.30098 23.2904 8.29376 23.2796 8.29376" stroke="#323232" stroke-width="2" stroke-linecap="round" stroke-linejoin="round"/>
<path id="Path_4" d="M16.6559 8.29376C16.6451 8.29376 16.6379 8.30098 16.6379 8.31182C16.6379 8.32266 16.6451 8.32989 16.6559 8.32989C16.6668 8.32989 16.674 8.32266 16.674 8.31182C16.674 8.30098 16.6668 8.29376 16.6559 8.29376" stroke="#323232" stroke-width="2" stroke-linecap="round" stroke-linejoin="round"/>
<path id="Path_5" d="M8.82794 8.29376C8.8171 8.29376 8.80987 8.30098 8.80987 8.31182C8.80987 8.32266 8.8171 8.32989 8.82794 8.32989C8.83877 8.32989 8.846 8.32266 8.846 8.31182C8.846 8.30098 8.83877 8.29376 8.82794 8.29376" stroke="#323232" stroke-width="2" stroke-linecap="round" stroke-linejoin="round"/>
<path id="Path_6" d="M1 14.9355H48.5699" stroke="#323232" stroke-width="2" stroke-linecap="round" stroke-linejoin="round"/>
<path id="Vector" d="M42.7988 32.3979V43.8388M48.5699 38.4195H37.129" stroke="url(#paint1_linear_488_436)" stroke-width="2" stroke-linecap="round" stroke-linejoin="round"/>
</g>
</g>
<defs>
<linearGradient id="paint0_linear_488_436" x1="42.8494" y1="23.3656" x2="42.8494" y2="52.2688" gradientUnits="userSpaceOnUse">
<stop stop-color="#7631A5"/>
<stop offset="1" stop-color="#E4715D"/>
</linearGradient>
<linearGradient id="paint1_linear_488_436" x1="42.8495" y1="36.613" x2="42.8495" y2="40.2259" gradientUnits="userSpaceOnUse">
<stop stop-color="#7631A5"/>
<stop offset="1" stop-color="#E4715D"/>
</linearGradient>
</defs>
</svg>
