<svg width="217" height="354" viewBox="0 0 217 354" fill="none" xmlns="http://www.w3.org/2000/svg">
<g opacity="0.45" clip-path="url(#clip0_488_260)">
<path d="M243.335 143.083L172.128 49.5635L52.0268 63.8749L6.11223 174.095L77.4671 268.957L197.927 252.976L243.335 143.083Z" stroke="white" stroke-width="2.41496"/>
<path d="M163.571 156.225L138.8 123.658L97.1959 128.507L81.3986 166.756L106.223 199.79L147.949 194.361L163.571 156.225Z" fill="white"/>
<path d="M137.234 54.6373L124.603 38.0361L103.359 40.5298L95.2754 60.0493L107.933 76.8885L129.24 74.0989L137.234 54.6373Z" fill="white"/>
<path d="M181.989 61.9952L198.086 60.2257L268.791 154.087L221.03 266.949L102.624 281.596L93.443 267.387" stroke="white" stroke-opacity="0.49" stroke-width="2.41496"/>
<path d="M210.105 75.2956L222.518 73.3793L291.089 168.384L245.283 279.845L122.859 297.191L112.057 280.474" stroke="white" stroke-opacity="0.33" stroke-width="2.41496"/>
<path d="M233.156 87.808L246.075 85.5642L314.646 180.569L268.84 292.03L146.417 309.376L136.597 294.178" stroke="white" stroke-opacity="0.06" stroke-width="2.41496"/>
</g>
<defs>
<clipPath id="clip0_488_260">
<rect width="217" height="354" fill="white" transform="matrix(-1 0 0 1 217 0)"/>
</clipPath>
</defs>
</svg>
