<svg width="359" height="586" viewBox="0 0 359 586" fill="none" xmlns="http://www.w3.org/2000/svg">
<g opacity="0.45">
<path d="M-94.9307 236.858L22.9537 82.0537L221.898 105.828L298.021 288.361L179.892 445.388L-19.647 418.848L-94.9307 236.858Z" stroke="white" stroke-width="4"/>
<path d="M36.2725 258.599L77.2458 204.761L146.218 212.896L172.503 276.246L131.443 330.857L62.2665 321.762L36.2725 258.599Z" fill="white"/>
<path d="M80.4423 90.7444L101.365 63.2274L136.455 67.2865L149.749 99.5669L128.781 127.478L93.5879 122.929L80.4423 90.7444Z" fill="white"/>
<path d="M6.32323 102.263L-20.3474 99.3166L-137.392 254.663L-58.154 441.589L138.025 465.958L153.221 442.441" stroke="white" stroke-opacity="0.49" stroke-width="4"/>
<path d="M-39.9626 124.147L-60.5341 120.975L-174.219 278.492L-98.3408 463.247L104.557 491.958L122.467 464.241" stroke="white" stroke-opacity="0.33" stroke-width="4"/>
<path d="M-79.0368 145.927L-100.448 142.212L-214.133 299.729L-138.255 484.485L64.6434 513.195L80.9246 487.998" stroke="white" stroke-opacity="0.06" stroke-width="4"/>
</g>
</svg>
