<svg width="125" height="125" viewBox="0 0 125 125" fill="none" xmlns="http://www.w3.org/2000/svg">
<g id="Frame 217">
<g id="Group">
<path id="Path" d="M81 69.9238L84.5513 66.3725C87.3438 63.5732 91.1354 62 95.0894 62C99.0434 62 102.835 63.5732 105.627 66.3725V66.3725C108.427 69.165 110 72.9566 110 76.9106C110 80.8646 108.427 84.6561 105.627 87.4487L102.076 91" stroke="url(#paint0_linear_406_3107)" stroke-width="5" stroke-linecap="round" stroke-linejoin="round"/>
<path id="Path_2" d="M69.9184 81L66.3661 84.5523C60.5446 90.3738 60.5446 99.8123 66.3661 105.634C72.1877 111.455 81.6262 111.455 87.4478 105.634L91 102.082" stroke="url(#paint1_linear_406_3107)" stroke-width="5" stroke-linecap="round" stroke-linejoin="round"/>
<path id="Path_3" d="M47.3333 110H36.8889C25.3523 110 16 100.648 16 89.1111V36.8889C16 25.3523 25.3523 16 36.8889 16H89.1111C100.648 16 110 25.3523 110 36.8889V47.3333" stroke="#323232" stroke-width="5" stroke-linecap="round" stroke-linejoin="round"/>
<path id="Path_4" d="M36 46.5H57" stroke="#323232" stroke-width="5" stroke-linecap="round" stroke-linejoin="round"/>
<path id="Path_5" d="M46.5 57V36" stroke="#323232" stroke-width="5" stroke-linecap="round" stroke-linejoin="round"/>
<path id="Path_6" d="M95 77L77 95" stroke="url(#paint2_linear_406_3107)" stroke-width="5" stroke-linecap="round" stroke-linejoin="round"/>
</g>
</g>
<defs>
<linearGradient id="paint0_linear_406_3107" x1="95.5" y1="62" x2="95.5" y2="91" gradientUnits="userSpaceOnUse">
<stop stop-color="#7631A5"/>
<stop offset="1" stop-color="#E4715D"/>
</linearGradient>
<linearGradient id="paint1_linear_406_3107" x1="76.5" y1="81" x2="76.5" y2="110" gradientUnits="userSpaceOnUse">
<stop stop-color="#7631A5"/>
<stop offset="1" stop-color="#E4715D"/>
</linearGradient>
<linearGradient id="paint2_linear_406_3107" x1="86" y1="77" x2="86" y2="95" gradientUnits="userSpaceOnUse">
<stop stop-color="#7631A5"/>
<stop offset="1" stop-color="#E4715D"/>
</linearGradient>
</defs>
</svg>
